<svg width="350" height="622" viewBox="0 0 350 622" fill="none" xmlns="http://www.w3.org/2000/svg">
<path d="M24.6083 279.437H68.4028V178.015L83.8351 186.432L124.71 186.011C193.113 186.011 237.324 152.344 237.324 92.5846C237.324 33.2463 200.203 0 124.293 0H24.6083V279.437ZM68.4028 147.294V51.3423L61.7293 32.4046L80.9155 38.7172H124.293C172.675 38.7172 190.61 56.8133 190.61 92.5846C190.61 128.777 172.675 147.294 125.127 147.294H68.4028Z" fill="white"/>
<path d="M123.876 622C188.525 622 222.726 585.808 222.726 537.411C222.726 483.123 173.092 467.131 128.047 454.506C90.0915 444.406 55.8901 435.568 55.8901 408.635C55.8901 384.647 71.7395 366.972 108.861 366.972C147.233 366.972 168.087 381.28 174.344 414.106H220.224C210.213 358.555 173.509 329.938 110.529 329.938C48.3825 329.938 13.764 366.551 13.764 412.001C13.764 465.448 61.7293 481.019 105.941 492.802C144.313 502.903 178.932 511.74 178.932 539.936C178.932 566.028 164.334 584.125 125.544 584.125C84.2522 584.125 54.6388 564.766 48.7995 529.415H0C10.4273 590.437 54.2217 622 123.876 622Z" fill="white"/>
<path d="M290.773 616.108H350V552.982H290.773V616.108Z" fill="white"/>
</svg>
